<svg width="205" height="38" viewBox="0 0 205 38" fill="none" xmlns="http://www.w3.org/2000/svg">
<g clip-path="url(#clip0)">
<path d="M31.794 19.5368L24.9327 8.12489L22.1064 9.82539L17.6177 12.5234L22.1064 19.9975L28.0321 29.8751H31.794H37.9999L31.794 19.5368Z" fill="#030020"/>
<path d="M22.1066 25.8091L16.1287 15.8626L9.04645 20.1258L8.8042 20.2683L9.04645 20.6696L14.5778 29.8751H22.1066H24.5386L22.1066 25.8091Z" fill="#030020"/>
<path d="M9.04638 26.4741L7.32212 23.6099L0 28.0084L1.11862 29.8751H9.04638H11.0865L9.04638 26.4741Z" fill="#030020"/>
</g>
<path d="M52.952 25.584H45.504L44.188 29H37.468L46.036 9.4H52.532L61.1 29H54.268L52.952 25.584ZM51.132 20.824L49.228 15.896L47.324 20.824H51.132ZM72.0386 13.404C73.3826 13.404 74.6146 13.7307 75.7346 14.384C76.8733 15.0187 77.7693 15.9427 78.4226 17.156C79.0946 18.3507 79.4306 19.7413 79.4306 21.328C79.4306 22.9147 79.0946 24.3147 78.4226 25.528C77.7693 26.7413 76.8733 27.6747 75.7346 28.328C74.6146 28.9627 73.3826 29.28 72.0386 29.28C70.1533 29.28 68.7533 28.7667 67.8386 27.74V29H61.8186V8.224H68.1466V14.72C69.0426 13.8427 70.3399 13.404 72.0386 13.404ZM70.5266 24.352C71.2546 24.352 71.8519 24.0907 72.3186 23.568C72.7853 23.0267 73.0186 22.28 73.0186 21.328C73.0186 20.376 72.7853 19.6387 72.3186 19.116C71.8519 18.5933 71.2546 18.332 70.5266 18.332C69.7986 18.332 69.2013 18.5933 68.7346 19.116C68.2679 19.6387 68.0346 20.376 68.0346 21.328C68.0346 22.28 68.2679 23.0267 68.7346 23.568C69.2013 24.0907 69.7986 24.352 70.5266 24.352ZM81.2841 13.684H87.6121V29H81.2841V13.684ZM84.4481 12.452C83.3094 12.452 82.3854 12.1533 81.6761 11.556C80.9854 10.94 80.6401 10.1653 80.6401 9.232C80.6401 8.29867 80.9854 7.53333 81.6761 6.936C82.3854 6.32 83.3094 6.012 84.4481 6.012C85.6054 6.012 86.5294 6.30133 87.2201 6.88C87.9107 7.45867 88.2561 8.20533 88.2561 9.12C88.2561 10.0907 87.9107 10.8933 87.2201 11.528C86.5294 12.144 85.6054 12.452 84.4481 12.452ZM100.497 13.404C101.841 13.404 103.073 13.7307 104.193 14.384C105.332 15.0187 106.228 15.9427 106.881 17.156C107.553 18.3507 107.889 19.7413 107.889 21.328C107.889 22.9147 107.553 24.3147 106.881 25.528C106.228 26.7413 105.332 27.6747 104.193 28.328C103.073 28.9627 101.841 29.28 100.497 29.28C98.6115 29.28 97.2115 28.7667 96.2969 27.74V29H90.2769V8.224H96.6049V14.72C97.5009 13.8427 98.7982 13.404 100.497 13.404ZM98.9849 24.352C99.7129 24.352 100.31 24.0907 100.777 23.568C101.244 23.0267 101.477 22.28 101.477 21.328C101.477 20.376 101.244 19.6387 100.777 19.116C100.31 18.5933 99.7129 18.332 98.9849 18.332C98.2569 18.332 97.6595 18.5933 97.1929 19.116C96.7262 19.6387 96.4929 20.376 96.4929 21.328C96.4929 22.28 96.7262 23.0267 97.1929 23.568C97.6595 24.0907 98.2569 24.352 98.9849 24.352ZM116.22 13.404C118.908 13.404 120.961 14.0107 122.38 15.224C123.798 16.4187 124.508 18.2667 124.508 20.768V29H118.628V26.984C117.9 28.5147 116.453 29.28 114.288 29.28C113.074 29.28 112.038 29.0747 111.18 28.664C110.34 28.2347 109.696 27.6653 109.248 26.956C108.818 26.228 108.604 25.416 108.604 24.52C108.604 23.008 109.182 21.86 110.34 21.076C111.497 20.292 113.252 19.9 115.604 19.9H118.152C117.946 18.7053 116.985 18.108 115.268 18.108C114.577 18.108 113.877 18.22 113.168 18.444C112.458 18.6493 111.852 18.9387 111.348 19.312L109.332 15.14C110.209 14.5987 111.264 14.1787 112.496 13.88C113.746 13.5627 114.988 13.404 116.22 13.404ZM116.192 25.472C116.64 25.472 117.041 25.3507 117.396 25.108C117.75 24.8653 118.012 24.5013 118.18 24.016V22.952H116.612C115.324 22.952 114.68 23.3813 114.68 24.24C114.68 24.5947 114.81 24.8933 115.072 25.136C115.352 25.36 115.725 25.472 116.192 25.472ZM133.094 29.28C131.788 29.28 130.5 29.14 129.23 28.86C127.961 28.58 126.934 28.216 126.15 27.768L127.886 23.596C128.596 24.0253 129.436 24.3613 130.406 24.604C131.377 24.8467 132.32 24.968 133.234 24.968C133.962 24.968 134.466 24.912 134.746 24.8C135.045 24.6693 135.194 24.4827 135.194 24.24C135.194 23.9973 135.008 23.8293 134.634 23.736C134.28 23.6427 133.692 23.5493 132.87 23.456C131.62 23.3067 130.556 23.12 129.678 22.896C128.801 22.6533 128.026 22.196 127.354 21.524C126.701 20.852 126.374 19.8907 126.374 18.64C126.374 17.6507 126.673 16.764 127.27 15.98C127.868 15.196 128.754 14.5707 129.93 14.104C131.125 13.6373 132.553 13.404 134.214 13.404C135.372 13.404 136.501 13.516 137.602 13.74C138.722 13.9453 139.674 14.2533 140.458 14.664L138.722 18.836C137.378 18.0893 135.904 17.716 134.298 17.716C132.917 17.716 132.226 17.9587 132.226 18.444C132.226 18.6867 132.413 18.864 132.786 18.976C133.16 19.0693 133.748 19.1627 134.55 19.256C135.801 19.4053 136.856 19.6013 137.714 19.844C138.592 20.0867 139.357 20.544 140.01 21.216C140.682 21.888 141.018 22.8493 141.018 24.1C141.018 25.052 140.72 25.92 140.122 26.704C139.525 27.488 138.629 28.1133 137.434 28.58C136.24 29.0467 134.793 29.28 133.094 29.28Z" fill="#030020"/>
<defs>
<clipPath id="clip0">
<rect width="38" height="38" fill="white"/>
</clipPath>
</defs>
</svg>
