<svg width="201" height="38" viewBox="0 0 201 38" fill="none" xmlns="http://www.w3.org/2000/svg">
<path d="M12.9081 26.2519L6.33276 26.3557L5.24318 30.0921L0.116865 30.173L7.10247 10.154L11.6136 10.0828L19.2824 29.8704L14.1288 29.9518L12.9081 26.2519ZM7.42256 22.6329L11.7013 22.5654L9.44611 15.6958L7.42256 22.6329ZM33.7809 24.1584L35.9715 14.8121L40.8244 14.7355L36.2324 29.6028L31.5298 29.6771L26.4707 14.9621L31.3373 14.8853L33.7809 24.1584ZM55.6247 10.8236L55.6828 14.5009L58.1161 14.4625L58.1666 17.6613L55.7333 17.6997L55.8401 24.4664C55.8489 25.0224 55.9553 25.4081 56.1592 25.6236C56.3632 25.8392 56.7613 25.9423 57.3537 25.933C57.8094 25.9258 58.1917 25.8924 58.5007 25.8328L58.5527 29.1273C57.7276 29.4047 56.8639 29.5505 55.9616 29.5648C54.3759 29.5898 53.1989 29.2346 52.4307 28.4993C51.6625 27.7639 51.2664 26.6353 51.2423 25.1133L51.1264 17.7724L49.2399 17.8022L49.1894 14.6034L51.0759 14.5736L51.0179 10.8963L55.6247 10.8236ZM67.1835 21.58C67.1602 20.1036 67.4266 18.7867 67.9826 17.6293C68.5385 16.4629 69.3492 15.5613 70.4148 14.9246C71.4804 14.2879 72.7377 13.9581 74.1868 13.9352C76.4013 13.9003 78.1574 14.5608 79.455 15.9168C80.7525 17.2636 81.4199 19.1173 81.4571 21.4776L81.4597 21.6417C81.4961 23.9474 80.8826 25.7893 79.619 27.1675C78.3644 28.5365 76.6435 29.2382 74.4563 29.2727C72.3511 29.306 70.6506 28.7038 69.3549 27.4663C68.059 26.2197 67.3439 24.5172 67.2095 22.3589L67.1835 21.58ZM71.7949 21.7943C71.8165 23.1613 72.0465 24.1604 72.4849 24.7916C72.9233 25.4228 73.5617 25.7317 74.4002 25.7185C76.0406 25.6926 76.8591 24.4171 76.8557 21.8921L76.8484 21.4274C76.8065 18.7753 75.938 17.4627 74.2429 17.4895C72.7027 17.5138 71.8869 18.6707 71.7954 20.9602L71.7949 21.7943ZM99.5732 23.1879L103.309 8.63497L108.667 8.55036L102.283 28.5599L97.034 28.6428L90.076 8.84391L95.3937 8.75994L99.5732 23.1879Z" fill="#030020"/>
<path d="M148.645 14.5042C148.62 14.4747 148.598 14.446 148.568 14.4173L147.236 13.1323C148.341 12.8818 149.53 11.9565 149.53 11.0073C149.53 9.90135 147.995 9.50892 146.685 9.50892C145.315 9.50892 145.156 10.4473 145.14 11.1104L141.704 7.79808C141.006 7.10707 139.682 6.56342 138.693 6.56342H132.001H132H125.307C124.318 6.56342 122.995 7.10707 122.296 7.79808L118.861 11.1104C118.843 10.4473 118.684 9.50892 117.316 9.50892C116.005 9.50892 114.47 9.90135 114.47 11.0073C114.47 11.9565 115.66 12.8818 116.765 13.1323L115.433 14.4173C115.403 14.446 115.382 14.4747 115.355 14.5042C113.931 15.7218 113 17.9802 113 19.6189V24.4885C113 25.6704 113.466 26.743 114.219 27.5426V29.431C114.219 30.5354 115.144 31.4358 116.281 31.4358H118.773C119.91 31.4358 120.834 30.537 120.834 29.431V28.9479H132H132.001H143.166V29.431C143.166 30.537 144.089 31.4358 145.228 31.4358H147.719C148.857 31.4358 149.78 30.5354 149.78 29.431V27.5426C150.534 26.743 150.999 25.6704 150.999 24.4885V19.6189C151.001 17.9802 150.07 15.7218 148.645 14.5042ZM123.558 9.27006C124.041 8.86755 124.885 8.56199 125.307 8.56199H132H132.001H138.694C139.115 8.56199 139.96 8.86755 140.443 9.27006L144.948 13.6364H132.001H132H119.053L123.558 9.27006ZM114.546 18.8821C114.546 17.6831 115.484 16.7098 116.643 16.7098C117.801 16.7098 121.585 18.931 121.585 20.13C121.585 21.329 117.801 21.0513 116.643 21.0513C115.484 21.0513 114.546 20.0819 114.546 18.8821ZM120.835 26.8128H120.435H120.036L117.667 26.8167C117.009 26.6119 116.545 26.3731 116.217 26.1164C116.051 25.9869 115.924 25.8519 115.825 25.7177C115.725 25.582 115.652 25.4486 115.604 25.3152C115.31 24.4823 115.918 23.7169 115.918 23.7169H119.962L122.658 26.8113L120.835 26.8128ZM137.815 26.8144H132.001H132H126.186C124.974 26.8144 123.99 25.8302 123.99 24.6188H132H132.001H140.011C140.011 25.8318 139.027 26.8144 137.815 26.8144ZM138.325 23.1205H132.001H132H125.676C124.357 23.1205 123.287 21.4949 123.287 19.4901H132H132.001H140.714C140.714 21.4957 139.644 23.1205 138.325 23.1205ZM148.397 25.3168C148.349 25.4502 148.276 25.5836 148.176 25.7185C148.078 25.8527 147.951 25.9876 147.784 26.1172C147.456 26.3739 146.992 26.6143 146.334 26.8175L143.965 26.8136H143.566H143.166H141.341L144.039 23.7192H148.082C148.082 23.7184 148.691 24.4823 148.397 25.3168ZM147.358 21.0513C146.201 21.0513 142.417 21.3274 142.417 20.13C142.417 18.9325 146.201 16.7098 147.358 16.7098C148.517 16.7098 149.455 17.6831 149.455 18.8821C149.455 20.0803 148.517 21.0513 147.358 21.0513Z" fill="#030020"/>
</svg>
