<svg width="31" height="31" viewBox="0 0 31 31" fill="none" xmlns="http://www.w3.org/2000/svg">
<path d="M15.5 0C10.993 0 7.32617 3.66678 7.32617 8.17383C7.32617 12.6809 10.993 16.3477 15.5 16.3477C20.007 16.3477 23.6738 12.6809 23.6738 8.17383C23.6738 3.66678 20.007 0 15.5 0Z" fill="url(#paint0_linear)"/>
<path d="M25.6698 21.6876C23.432 19.4154 20.4654 18.1641 17.3164 18.1641H13.6836C10.5347 18.1641 7.568 19.4154 5.33018 21.6876C3.10333 23.9487 1.87695 26.9332 1.87695 30.0918C1.87695 30.5934 2.28359 31 2.78516 31H28.2148C28.7164 31 29.123 30.5934 29.123 30.0918C29.123 26.9332 27.8967 23.9487 25.6698 21.6876Z" fill="url(#paint1_linear)"/>
<defs>
<linearGradient id="paint0_linear" x1="15.5" y1="0" x2="15.5" y2="16.3477" gradientUnits="userSpaceOnUse">
<stop stop-color="white" stop-opacity="0.3"/>
<stop offset="0.526042" stop-color="white" stop-opacity="0.7"/>
</linearGradient>
<linearGradient id="paint1_linear" x1="15.5" y1="18.1641" x2="15.5" y2="31" gradientUnits="userSpaceOnUse">
<stop stop-color="white" stop-opacity="0.3"/>
<stop offset="0.526042" stop-color="white" stop-opacity="0.7"/>
</linearGradient>
</defs>
</svg>
