<svg width="64" height="64" viewBox="0 0 64 64" fill="none" xmlns="http://www.w3.org/2000/svg">
<g clip-path="url(#clip0)">
<path d="M53.5658 62.8362L53.5655 62.8363C53.1185 62.952 52.1753 63.0629 50.8116 63.1602C49.4641 63.2563 47.7469 63.3367 45.7805 63.4012C41.8486 63.53 36.9345 63.5946 32.0181 63.595C27.1017 63.5953 22.1872 63.5313 18.2546 63.4033C16.2878 63.3393 14.5702 63.2593 13.2221 63.1637C11.8581 63.067 10.914 62.9566 10.466 62.8414C7.36405 62.0396 5.21907 60.5982 3.7257 58.6951C2.22564 56.7836 1.35476 54.37 0.869347 51.5815C0.383708 48.7919 0.288961 45.6587 0.318147 42.3297C0.330788 40.8878 0.367209 39.3946 0.404175 37.879C0.451678 35.9314 0.500082 33.9468 0.500082 31.987C0.500082 29.2663 0.473581 26.8469 0.449839 24.6795C0.399691 20.1015 0.361857 16.6476 0.61209 13.8525C0.976292 9.78453 1.94537 7.21024 4.35997 4.70205C5.65453 3.35976 6.97001 2.43955 8.62683 1.80192C10.2944 1.16017 12.3312 0.795495 15.0828 0.600367C18.7067 0.343386 23.4932 0.383398 30.1963 0.439432C33.7101 0.468806 37.7507 0.502582 42.4265 0.500287C49.8994 0.513318 50.3265 0.575403 51.6914 0.773789C51.7244 0.778596 51.7581 0.783483 51.7924 0.788452L51.7928 0.788522C54.9462 1.24232 57.6976 2.58524 59.7364 4.767C61.7744 6.94787 63.1279 9.99629 63.435 13.9087L63.435 13.9093C63.4544 14.1521 63.4707 16.4525 63.4815 19.837C63.4922 23.2012 63.4976 27.5976 63.4978 31.9936C63.4979 36.3897 63.4928 40.7848 63.4825 44.1463C63.4722 47.528 63.4563 49.8246 63.4376 50.0624L63.4376 50.0624C62.862 57.3816 58.6779 61.5172 53.5658 62.8362Z" fill="url(#paint0_linear)" stroke="white"/>
<path d="M10.0713 16.704L10.0713 16.704C9.37453 18.492 9.06838 20.5692 8.94077 23.0878C8.84281 25.0211 8.85074 27.1858 8.85979 29.6563C8.86255 30.4092 8.86541 31.1906 8.86541 32.0025C8.86541 32.6618 8.86314 33.3153 8.8609 33.9613C8.85279 36.3034 8.84501 38.5465 8.9468 40.6095C9.07681 43.2446 9.38418 45.5294 10.0715 47.2988C11.7511 51.6218 14.7878 53.5693 18.6196 54.4519C21.8732 55.2013 25.6544 55.1742 29.6452 55.1457C30.4195 55.1401 31.2016 55.1345 31.9894 55.1345C32.8137 55.1345 33.6362 55.1419 34.4535 55.1492C38.2771 55.1834 41.9851 55.2167 45.217 54.4894C49.0881 53.6182 52.2068 51.6686 53.9102 47.2982C54.6086 45.4907 54.9145 43.4215 55.0417 40.9138C55.1391 38.9937 55.1311 36.844 55.1219 34.3791C55.119 33.6178 55.1161 32.8265 55.1161 32.0025C55.1161 31.1087 55.1207 30.2482 55.1252 29.4188C55.1441 25.9372 55.16 23.0038 54.8156 20.452C54.3931 17.3213 53.4336 14.8271 51.2946 12.6895L51.2945 12.6894C49.1289 10.5238 46.5789 9.56413 43.4258 9.14885C40.9061 8.81699 38.0433 8.83617 34.71 8.85851C33.8379 8.86436 32.9336 8.87042 31.9948 8.87046C31.9912 8.87046 31.9876 8.87046 31.9841 8.87046M10.0713 16.704L9.60541 47.4798C8.32534 44.1845 8.34237 39.2842 8.36091 33.9515C8.36315 33.3075 8.36541 32.6571 8.36541 32.0025C8.36541 31.1966 8.36255 30.4191 8.3598 29.6682C8.33887 23.9693 8.32361 19.8118 9.60541 16.5225C12.8335 8.23776 20.8626 8.29573 29.6589 8.35925C30.429 8.36481 31.2049 8.37041 31.9841 8.37046V8.87046M10.0713 16.704C10.9199 14.5261 12.1023 12.9657 13.533 11.8391C14.9672 10.7098 16.6747 9.99773 18.5985 9.55366C21.8455 8.80415 25.6258 8.83094 29.6385 8.85938C30.4124 8.86487 31.195 8.87041 31.9841 8.87046M10.0713 16.704L31.9841 8.87046M33.6471 12.104C32.6108 12.1137 31.5213 12.124 30.3774 12.1279V12.1233L29.8769 12.1238C25.9492 12.1278 22.8637 12.1485 20.4669 12.4822C18.0644 12.8167 16.2682 13.4757 14.9834 14.8239C13.7049 16.1655 13.0053 18.1146 12.6139 20.8591C12.222 23.6064 12.1294 27.2308 12.1294 31.9918C12.1294 36.6917 12.1624 40.2911 12.5122 43.0281C12.8618 45.7643 13.5376 47.7326 14.8998 49.095C16.262 50.4574 18.23 51.1331 20.9653 51.4826C23.7014 51.8322 27.2995 51.8651 31.9974 51.8651C32.9345 51.8651 33.8627 51.8753 34.7735 51.8852C36.3488 51.9025 37.8722 51.9191 39.3002 51.8817C41.5607 51.8225 43.65 51.6279 45.4438 51.0688C47.2485 50.5064 48.7717 49.5695 49.8694 48.0217C50.9621 46.4809 51.5975 44.3846 51.7262 41.5666L51.7262 41.5665C52.0808 33.7702 52.188 28.0317 51.8278 23.8197C51.4687 19.6203 50.639 16.8372 49.0303 15.0436C47.4066 13.2333 45.0766 12.525 41.9778 12.2491C39.706 12.0468 36.9453 12.0729 33.6471 12.104ZM9.60562 16.5226L9.60976 16.5242L9.60562 16.5226ZM42.2734 19.3865C42.2734 18.0973 43.3189 17.0518 44.6081 17.0518C45.8972 17.0518 46.9428 18.0973 46.9428 19.3865C46.9428 20.6756 45.8972 21.7211 44.6081 21.7211C43.3189 21.7211 42.2734 20.6756 42.2734 19.3865ZM20.3614 32.0025C20.3614 25.5771 25.5696 20.3665 31.9948 20.3665C38.4196 20.3665 43.6255 25.577 43.6255 32.0025C43.6255 38.4278 38.4198 43.6358 31.9948 43.6358C25.5695 43.6358 20.3614 38.4277 20.3614 32.0025ZM31.9948 40.3798C34.7384 40.3798 36.8314 39.3383 38.2329 37.7488C39.626 36.1688 40.3106 34.077 40.3097 32.0022C40.3088 29.9274 39.6224 27.8358 38.2291 26.256C36.8274 24.6668 34.7353 23.6251 31.9948 23.6251C29.2511 23.6251 27.1582 24.6666 25.7569 26.2561C24.3641 27.8361 23.6797 29.9279 23.6807 32.0027C23.6818 34.0775 24.3683 36.1691 25.7615 37.7488C27.1631 39.3381 29.2549 40.3798 31.9948 40.3798Z" fill="#B306A1" fill-opacity="0.48" stroke="white"/>
</g>
<defs>
<linearGradient id="paint0_linear" x1="4.1228" y1="59.9125" x2="63.6041" y2="8.43223" gradientUnits="userSpaceOnUse">
<stop stop-color="white"/>
<stop offset="0.796875" stop-color="white" stop-opacity="0.21"/>
</linearGradient>
<clipPath id="clip0">
<rect width="64" height="64" fill="white"/>
</clipPath>
</defs>
</svg>
