<svg width="168" height="34" viewBox="0 0 168 34" fill="none" xmlns="http://www.w3.org/2000/svg">
<path d="M9.8935 28.7662C8.2695 28.7662 6.68284 28.5889 5.1335 28.2342C3.60284 27.8609 2.34284 27.3662 1.3535 26.7502L3.4815 21.9342C4.41484 22.4756 5.46017 22.9142 6.6175 23.2502C7.77484 23.5676 8.8855 23.7262 9.9495 23.7262C10.8642 23.7262 11.5175 23.6422 11.9095 23.4742C12.3015 23.2876 12.4975 23.0169 12.4975 22.6622C12.4975 22.2516 12.2362 21.9436 11.7135 21.7382C11.2095 21.5329 10.3695 21.3089 9.1935 21.0662C7.6815 20.7489 6.4215 20.4129 5.4135 20.0582C4.4055 19.6849 3.52817 19.0876 2.7815 18.2662C2.03484 17.4262 1.6615 16.2969 1.6615 14.8782C1.6615 13.6462 2.00684 12.5262 2.6975 11.5182C3.38817 10.5102 4.41484 9.7169 5.7775 9.13824C7.15884 8.55957 8.8295 8.27024 10.7895 8.27024C12.1335 8.27024 13.4495 8.41957 14.7375 8.71824C16.0442 8.99824 17.1922 9.41824 18.1815 9.97824L16.1935 14.7662C14.2708 13.7956 12.4508 13.3102 10.7335 13.3102C9.03484 13.3102 8.1855 13.7209 8.1855 14.5422C8.1855 14.9342 8.4375 15.2329 8.9415 15.4382C9.4455 15.6249 10.2762 15.8302 11.4335 16.0542C12.9268 16.3342 14.1868 16.6609 15.2135 17.0342C16.2402 17.3889 17.1268 17.9769 17.8735 18.7982C18.6388 19.6196 19.0215 20.7396 19.0215 22.1582C19.0215 23.3902 18.6762 24.5102 17.9855 25.5182C17.2948 26.5076 16.2588 27.3009 14.8775 27.8982C13.5148 28.4769 11.8535 28.7662 9.8935 28.7662ZM37.3958 13.0022V28.3182H31.3758V26.8622C30.8158 27.4409 30.1625 27.8796 29.4158 28.1782C28.6692 28.4582 27.8758 28.5982 27.0358 28.5982C25.0945 28.5982 23.5358 28.0102 22.3598 26.8342C21.1838 25.6396 20.5958 23.8476 20.5958 21.4582V13.0022H26.9238V20.3662C26.9238 21.4116 27.0918 22.1582 27.4278 22.6062C27.7638 23.0542 28.2585 23.2782 28.9118 23.2782C29.5278 23.2782 30.0412 23.0356 30.4518 22.5502C30.8625 22.0462 31.0678 21.2622 31.0678 20.1982V13.0022H37.3958ZM50.2826 12.7222C51.6266 12.7222 52.8586 13.0489 53.9786 13.7022C55.1173 14.3369 56.0133 15.2609 56.6666 16.4742C57.3386 17.6876 57.6746 19.0876 57.6746 20.6742C57.6746 22.2609 57.3386 23.6609 56.6666 24.8742C56.0133 26.0689 55.1173 26.9929 53.9786 27.6462C52.8586 28.2809 51.6266 28.5982 50.2826 28.5982C48.584 28.5982 47.2866 28.1596 46.3906 27.2822V33.7502H40.0626V13.0022H46.0826V14.2622C46.9973 13.2356 48.3973 12.7222 50.2826 12.7222ZM48.7706 23.6702C49.4986 23.6702 50.096 23.4089 50.5626 22.8862C51.0293 22.3636 51.2626 21.6262 51.2626 20.6742C51.2626 19.7222 51.0293 18.9849 50.5626 18.4622C50.096 17.9209 49.4986 17.6502 48.7706 17.6502C48.0426 17.6502 47.4453 17.9209 46.9786 18.4622C46.512 18.9849 46.2786 19.7222 46.2786 20.6742C46.2786 21.6262 46.512 22.3636 46.9786 22.8862C47.4453 23.4089 48.0426 23.6702 48.7706 23.6702ZM75.8241 20.6462C75.8241 20.7396 75.7961 21.2342 75.7401 22.1302H65.1001C65.3241 22.7089 65.6974 23.1569 66.2201 23.4742C66.7428 23.7729 67.3961 23.9222 68.1801 23.9222C68.8521 23.9222 69.4121 23.8382 69.8601 23.6702C70.3268 23.5022 70.8308 23.2129 71.3721 22.8022L74.6761 26.1342C73.1828 27.7769 70.9521 28.5982 67.9841 28.5982C66.1361 28.5982 64.5121 28.2622 63.1121 27.5902C61.7121 26.8996 60.6294 25.9476 59.8641 24.7342C59.0988 23.5209 58.7161 22.1582 58.7161 20.6462C58.7161 19.1156 59.0894 17.7529 59.8361 16.5582C60.6014 15.3449 61.6374 14.4022 62.9441 13.7302C64.2694 13.0582 65.7534 12.7222 67.3961 12.7222C68.9454 12.7222 70.3548 13.0302 71.6241 13.6462C72.9121 14.2622 73.9294 15.1676 74.6761 16.3622C75.4414 17.5569 75.8241 18.9849 75.8241 20.6462ZM67.4521 17.0342C66.7988 17.0342 66.2574 17.2116 65.8281 17.5662C65.3988 17.9209 65.1188 18.4249 64.9881 19.0782H69.9161C69.7854 18.4436 69.5054 17.9489 69.0761 17.5942C68.6468 17.2209 68.1054 17.0342 67.4521 17.0342ZM83.7011 14.6542C84.8211 13.3662 86.4731 12.7222 88.6571 12.7222V18.3222C88.1531 18.2476 87.6864 18.2102 87.2571 18.2102C85.0917 18.2102 84.0091 19.3116 84.0091 21.5142V28.3182H77.6811V13.0022H83.7011V14.6542ZM100.372 28.7662C98.2631 28.7662 96.3684 28.3276 94.6884 27.4502C93.0084 26.5729 91.6924 25.3596 90.7404 23.8102C89.7884 22.2422 89.3124 20.4782 89.3124 18.5182C89.3124 16.5582 89.7884 14.8036 90.7404 13.2542C91.6924 11.6862 93.0084 10.4636 94.6884 9.58624C96.3684 8.7089 98.2631 8.27024 100.372 8.27024C102.482 8.27024 104.376 8.7089 106.056 9.58624C107.736 10.4636 109.052 11.6862 110.004 13.2542C110.956 14.8036 111.432 16.5582 111.432 18.5182C111.432 20.4782 110.956 22.2422 110.004 23.8102C109.052 25.3596 107.736 26.5729 106.056 27.4502C104.376 28.3276 102.482 28.7662 100.372 28.7662ZM100.372 23.4182C101.194 23.4182 101.931 23.2222 102.584 22.8302C103.256 22.4196 103.788 21.8502 104.18 21.1222C104.572 20.3756 104.768 19.5076 104.768 18.5182C104.768 17.5289 104.572 16.6702 104.18 15.9422C103.788 15.1956 103.256 14.6262 102.584 14.2342C101.931 13.8236 101.194 13.6182 100.372 13.6182C99.5511 13.6182 98.8044 13.8236 98.1324 14.2342C97.4791 14.6262 96.9564 15.1956 96.5644 15.9422C96.1724 16.6702 95.9764 17.5289 95.9764 18.5182C95.9764 19.5076 96.1724 20.3756 96.5644 21.1222C96.9564 21.8502 97.4791 22.4196 98.1324 22.8302C98.8044 23.2222 99.5511 23.4182 100.372 23.4182ZM113.495 13.0022H119.823V28.3182H113.495V13.0022ZM116.659 11.7702C115.52 11.7702 114.596 11.4716 113.887 10.8742C113.196 10.2582 112.851 9.48357 112.851 8.55024C112.851 7.6169 113.196 6.85157 113.887 6.25424C114.596 5.63824 115.52 5.33024 116.659 5.33024C117.816 5.33024 118.74 5.61957 119.431 6.19824C120.121 6.7769 120.467 7.52357 120.467 8.43824C120.467 9.4089 120.121 10.2116 119.431 10.8462C118.74 11.4622 117.816 11.7702 116.659 11.7702ZM122.488 7.54224H128.816V28.3182H122.488V7.54224Z" fill="#030020"/>
<g clip-path="url(#clip0)">
<path d="M154.867 0.111694H131.958C130.877 0.111694 130 0.988385 130 2.06982C130 3.15133 130.877 4.02794 131.958 4.02794L136.109 4.03256C136.714 4.03256 137.205 4.5235 137.205 5.12911C137.205 5.73472 136.714 6.22566 136.109 6.22566H132.634V14.542H131.958C130.877 14.542 130 15.4186 130 16.5002C130 17.5816 130.877 18.4583 131.958 18.4583L136.109 18.4639C136.714 18.4639 137.205 18.9549 137.205 19.5605C137.205 20.1661 136.714 20.657 136.109 20.657H132.634V28.9721H131.958C130.877 28.9721 130 29.8488 130 30.9303C130 32.0117 130.877 32.8884 131.958 32.8884H149.207C147.067 31.1392 145.699 28.4802 145.699 25.5074C145.699 23.3133 147.063 20.4063 149.87 16.6201C151.807 14.0079 153.717 11.9527 153.797 11.8665L154.192 11.4433V4.02794H154.867C155.949 4.02794 156.825 3.15133 156.825 2.06982C156.825 0.988385 155.948 0.111694 154.867 0.111694Z" fill="#030020"/>
<path d="M159.47 18.2174C157.756 15.9047 156.017 14.0335 155.999 14.0148C155.911 13.9197 155.786 13.8658 155.656 13.8658C155.526 13.8658 155.402 13.9197 155.314 14.0148C155.296 14.0335 153.557 15.9047 151.842 18.2174C149.5 21.3766 148.313 23.8289 148.313 25.5063C148.313 29.5556 151.607 32.8502 155.657 32.8502C159.706 32.8502 163 29.5557 163 25.5063C163 23.8287 161.812 21.3766 159.47 18.2174ZM156.39 30.4736C156.005 30.5646 155.608 30.6106 155.21 30.6106C152.384 30.6106 150.085 28.3115 150.085 25.4854C150.085 25.0957 150.205 24.39 150.777 23.2396C150.834 23.1239 150.966 23.0666 151.09 23.1034C151.214 23.1402 151.293 23.2608 151.278 23.389C151.265 23.4997 151.258 23.6039 151.258 23.6988C151.258 26.7279 153.412 29.3592 156.381 29.9551C156.503 29.9796 156.592 30.0861 156.594 30.2108C156.596 30.3356 156.511 30.4448 156.39 30.4736Z" fill="#030020"/>
</g>
<defs>
<clipPath id="clip0">
<rect width="33" height="33" fill="white" transform="translate(130)"/>
</clipPath>
</defs>
</svg>
