<svg width="86" height="87" viewBox="0 0 86 87" fill="none" xmlns="http://www.w3.org/2000/svg">
<path d="M2.56714 43.0202C2.56714 20.674 20.8469 2.55884 43.396 2.55884C47.5519 2.55884 51.563 3.17421 55.3412 4.31803" stroke="#0B0520" stroke-width="4" stroke-linecap="round" stroke-linejoin="round"/>
<path fill-rule="evenodd" clip-rule="evenodd" d="M34.6089 51.7275C39.4619 56.5365 47.3295 56.5365 52.1823 51.7275C57.035 46.9184 77.1236 13.1138 75.3485 11.3547C73.5733 9.59546 39.4619 29.5034 34.6089 34.3125C29.7563 39.1215 29.7563 46.9184 34.6089 51.7275ZM43.3953 46.5387C45.3561 46.5387 46.9459 44.9635 46.9459 43.0203C46.9459 41.0771 45.3561 39.5019 43.3953 39.5019C41.4346 39.5019 39.8452 41.0771 39.8452 43.0203C39.8452 44.9635 41.4346 46.5387 43.3953 46.5387Z" fill="#0B0520"/>
<path d="M7.89287 67.6489C9.85366 67.6489 11.4432 66.0737 11.4432 64.1305C11.4432 62.1874 9.85366 60.6121 7.89287 60.6121C5.93207 60.6121 4.34253 62.1874 4.34253 64.1305C4.34253 66.0737 5.93207 67.6489 7.89287 67.6489Z" fill="#0B0520"/>
<path d="M22.094 81.7224C24.0548 81.7224 25.6444 80.1472 25.6444 78.2041C25.6444 76.2609 24.0548 74.6857 22.094 74.6857C20.1332 74.6857 18.5437 76.2609 18.5437 78.2041C18.5437 80.1472 20.1332 81.7224 22.094 81.7224Z" fill="#0B0520"/>
<path d="M43.3958 87C45.3566 87 46.9461 85.4248 46.9461 83.4816C46.9461 81.5385 45.3566 79.9633 43.3958 79.9633C41.435 79.9633 39.8455 81.5385 39.8455 83.4816C39.8455 85.4248 41.435 87 43.3958 87Z" fill="#0B0520"/>
<path d="M64.6978 81.7224C66.6586 81.7224 68.2481 80.1472 68.2481 78.2041C68.2481 76.2609 66.6586 74.6857 64.6978 74.6857C62.737 74.6857 61.1475 76.2609 61.1475 78.2041C61.1475 80.1472 62.737 81.7224 64.6978 81.7224Z" fill="#0B0520"/>
<path d="M77.1241 67.6489C79.0849 67.6489 80.6744 66.0737 80.6744 64.1305C80.6744 62.1874 79.0849 60.6121 77.1241 60.6121C75.1633 60.6121 73.5737 62.1874 73.5737 64.1305C73.5737 66.0737 75.1633 67.6489 77.1241 67.6489Z" fill="#0B0520"/>
<path d="M82.4495 46.5386C84.4103 46.5386 85.9998 44.9634 85.9998 43.0202C85.9998 41.0771 84.4103 39.5018 82.4495 39.5018C80.4887 39.5018 78.8992 41.0771 78.8992 43.0202C78.8992 44.9634 80.4887 46.5386 82.4495 46.5386Z" fill="#0B0520"/>
</svg>
