<svg width="95" height="84" viewBox="0 0 95 84" fill="none" xmlns="http://www.w3.org/2000/svg">
<path d="M36.2586 42C47.1976 42 56.0654 33.1678 56.0654 22.2727C56.0654 11.3777 47.1976 2.54547 36.2586 2.54547C25.3197 2.54547 16.4519 11.3777 16.4519 22.2727C16.4519 33.1678 25.3197 42 36.2586 42Z" stroke="white" stroke-width="4" stroke-linecap="round" stroke-linejoin="round"/>
<path d="M69.9836 81.4547C69.9836 63.1981 54.8843 48.3982 36.2584 48.3982C17.6326 48.3982 2.53345 63.1981 2.53345 81.4547" stroke="white" stroke-width="4" stroke-linecap="round" stroke-linejoin="round"/>
<path d="M78.5483 34.0023C83.0628 34.0023 86.7225 30.3023 86.7225 25.7382C86.7225 21.174 83.0628 17.4741 78.5483 17.4741C74.0338 17.4741 70.374 21.174 70.374 25.7382C70.374 30.3023 74.0338 34.0023 78.5483 34.0023Z" stroke="white" stroke-width="3" stroke-linecap="round" stroke-linejoin="round"/>
<path d="M92.4666 50.5308C92.4666 42.8827 86.2353 36.6827 78.5484 36.6827C70.8615 36.6827 64.6301 42.8827 64.6301 50.5308" stroke="white" stroke-width="3" stroke-linecap="round" stroke-linejoin="round"/>
</svg>
