<svg width="64" height="64" viewBox="0 0 64 64" fill="none" xmlns="http://www.w3.org/2000/svg">
<path d="M64 0H0V64H64V0Z" fill="url(#paint0_linear)"/>
<path d="M17.05 19.258C18.5838 23.0457 20.5277 26.617 23.088 29.8229C23.4275 30.2496 23.8556 30.6289 24.3065 30.9377C24.9652 31.39 25.5866 31.2311 25.8544 30.4776C26.1376 29.687 26.3976 28.0846 26.413 27.2544C26.4553 25.085 26.4067 23.6632 26.2901 21.4965C26.2146 20.1087 25.7213 18.8902 23.6799 18.5224C23.0495 18.4083 22.9909 17.8894 23.3959 17.3718C24.2391 16.2941 25.4137 16.1224 26.6874 16.0544C28.7518 15.9429 30.8238 16.0339 32.8907 16.0544C33.7326 16.0621 34.5795 16.1299 35.4086 16.3107C36.4901 16.5465 37.0693 17.3051 37.2475 18.3609C37.3398 18.9055 37.3872 19.4654 37.3743 20.0164C37.3205 22.3844 37.2065 24.7512 37.1795 27.1179C37.168 28.0469 37.2358 28.999 37.4345 29.9037C37.7126 31.1645 38.5711 31.481 39.4489 30.57C40.5637 29.413 41.5466 28.111 42.4691 26.7887C44.1452 24.3835 45.397 21.7439 46.4747 19.0223C47.0321 17.618 47.4588 17.313 48.9695 17.3092C51.8091 17.3027 54.6486 17.3002 57.4882 17.3092C57.9918 17.3117 58.5184 17.3592 58.9938 17.5104C59.7652 17.7564 60.0715 18.3856 59.8907 19.184C59.4692 21.0548 58.4582 22.6449 57.3754 24.1737C55.6378 26.6262 53.817 29.0199 52.0385 31.4442C51.8117 31.7531 51.6119 32.0824 51.426 32.4167C50.7609 33.6187 50.8071 34.2927 51.777 35.2934C53.3211 36.8862 54.9742 38.3763 56.4695 40.0127C57.5562 41.2031 58.562 42.4947 59.4231 43.8542C60.5123 45.5738 59.8395 47.1935 57.8047 47.4818C56.5247 47.6625 50.2717 47.4832 49.9486 47.4818C48.2675 47.4742 46.7939 46.8911 45.6072 45.7494C44.2874 44.4783 43.088 43.0841 41.8207 41.7578C41.4389 41.358 41.0313 40.9749 40.5919 40.6404C39.5552 39.8498 38.5378 40.0253 38.0534 41.2427C37.6396 42.2884 37.282 45.0343 37.2653 45.2688C37.1783 46.4951 36.3979 47.2767 35.0241 47.3523C31.0583 47.5676 27.2153 47.1255 23.6352 45.2073C20.6009 43.5825 18.1779 41.285 16.0789 38.6057C12.7448 34.35 10.1112 29.672 7.70683 24.8566C7.58395 24.6105 5.14869 19.4284 5.08325 19.1837C4.86572 18.3641 5.06865 17.5812 5.76112 17.3117C6.19282 17.1437 14.222 17.3111 14.3555 17.3183C15.6367 17.3877 16.5103 17.9282 17.05 19.258Z" fill="#9E96FF" fill-opacity="0.99"/>
<defs>
<linearGradient id="paint0_linear" x1="32" y1="0" x2="32" y2="64" gradientUnits="userSpaceOnUse">
<stop stop-color="white"/>
<stop offset="1" stop-color="white" stop-opacity="0.17"/>
</linearGradient>
</defs>
</svg>
